<?xml version="1.0" standalone="no"?>
<!DOCTYPE svg PUBLIC "-//W3C//DTD SVG 20010904//EN"
 "http://www.w3.org/TR/2001/REC-SVG-20010904/DTD/svg10.dtd">
<svg version="1.0" xmlns="http://www.w3.org/2000/svg"
 width="512.000000pt" height="512.000000pt" viewBox="0 0 512.000000 512.000000"
 preserveAspectRatio="xMidYMid meet">

<g transform="translate(0.000000,512.000000) scale(0.100000,-0.100000)"
fill="#000000" stroke="none">
<path d="M1956 4661 c-18 -18 -30 -44 -33 -71 l-6 -42 1099 -1099 1099 -1099
45 0 44 0 343 342 c230 230 346 353 353 374 9 25 8 40 -3 66 -9 20 -316 333
-779 796 l-763 762 -686 0 -685 0 -28 -29z"/>
<path d="M1479 2273 c-1298 -1300 -1237 -1234 -1259 -1368 -28 -175 74 -368
233 -441 56 -26 72 -29 167 -29 98 0 110 2 175 33 67 32 121 84 1270 1232
l1200 1200 -285 285 c-157 157 -289 285 -295 285 -6 0 -548 -539 -1206 -1197z"/>
</g>
</svg>
